# xmcd CD database file
#
# Track frame offsets:
#	150
#	19027
#	38072
#	57835
#	90118
#	109075
#	126955
#	142830
#	163405
#
# Disc length: 2764 seconds
#
# Revision: 0
# Processed by: cddbd v1.4PL0 Copyright (c) Steve Scherf et al.
# Submitted via: CDex 1.50
#
DISCID=6b0aca09
DTITLE=Paolo Conte - Collection
DYEAR=1900
DGENRE=Jazz
TTITLE0=DANCING
TTITLE1=GIOCO D'AZZARDO
TTITLE2=LA RAGAZZA FISARMONICA
TTITLE3=NORD
TTITLE4=LO ZIO
TTITLE5=HEMINGWAY
TTITLE6=NUBIFRAGIO A MILANO
TTITLE7=ONDA SU ONDA
TTITLE8=Diavolo Rosso
EXTD=
EXTT0=
EXTT1=
EXTT2=
EXTT3=
EXTT4=
EXTT5=
EXTT6=
EXTT7=
EXTT8=
PLAYORDER=
